<svg width="22" height="22" viewBox="0 0 22 22" fill="none" xmlns="http://www.w3.org/2000/svg">
<path fill-rule="evenodd" clip-rule="evenodd" d="M0 3C0 1.34315 1.34315 0 3 0H19C20.6569 0 22 1.34315 22 3V19C22 20.6569 20.6569 22 19 22H3C1.34315 22 0 20.6569 0 19V3ZM13.3348 6.21319C13.2459 6.21319 13.1732 6.28384 13.1732 6.37081V7.53914C13.1733 7.58089 13.1903 7.6209 13.2206 7.65039C13.2509 7.67988 13.292 7.69644 13.3348 7.69644H17.3467C17.3894 7.69628 17.4303 7.67965 17.4605 7.65019C17.4907 7.62072 17.5078 7.58081 17.5079 7.53914V6.37081C17.5079 6.28384 17.4349 6.21319 17.3467 6.21319H13.3348ZM9.98071 15.4006C10.6605 15.0618 11.4693 14.3425 11.4693 12.8511C11.4731 12.7993 11.5337 11.581 10.8275 10.8526C10.6465 10.6635 10.4211 10.5203 10.1706 10.4353C10.6212 10.2011 11.1333 9.70906 11.1333 8.6836C11.1333 7.02797 10.0174 6 8.22145 6H3.16157C3.07338 6 3 6.07096 3 6.15793V15.6417C3.00025 15.6835 3.01735 15.7235 3.04758 15.753C3.07782 15.7826 3.11877 15.7994 3.16157 15.7997H8.25428C8.4725 15.7997 9.24012 15.7708 9.98071 15.4006ZM18.9165 12.8064C18.9459 12.7811 18.9649 12.7462 18.9698 12.7082C18.9827 12.6266 19.2241 10.6972 18.0947 9.44092C17.4809 8.75896 16.5819 8.41295 15.4275 8.41295C13.4126 8.41295 12.4596 9.4516 12.0119 10.3223C11.5353 11.2557 11.5308 12.1757 11.5308 12.2036C11.5259 12.269 11.4291 13.8213 12.4902 14.9309C13.1674 15.638 14.1545 15.9969 15.4162 15.9969H15.4178C15.4178 15.9969 15.469 16 15.5588 16C16.1207 16 18.9154 15.8706 18.9154 13.3177C18.9154 13.2304 18.8427 13.1597 18.7532 13.1597H17.0432C17.0214 13.1597 16.9998 13.164 16.9798 13.1723C16.9597 13.1807 16.9417 13.193 16.9267 13.2084C16.8951 13.2398 16.8803 13.2815 16.8803 13.3249C16.8819 13.3359 16.888 13.5936 16.6637 13.8216C16.4297 14.059 16.0329 14.1792 15.4738 14.1792C15.4715 14.1798 15.4529 14.1811 15.423 14.1811C15.2794 14.1811 14.9057 14.1598 14.5678 13.9641C14.1857 13.7422 13.9743 13.3663 13.9392 12.8454H18.8098C18.8491 12.8456 18.887 12.8317 18.9165 12.8064Z" fill="#222222"/>
<path d="M15.2678 10.1588C14.2415 10.1588 13.9028 10.9772 13.7999 11.3572H16.5399C16.5142 11.1462 16.4338 10.7754 16.1777 10.505C15.9596 10.2757 15.6544 10.1588 15.2678 10.1588Z" fill="#222222"/>
<path d="M8.73395 8.81364C8.73395 7.95749 8.2441 7.94764 8.22376 7.94764H5.62898V9.82927H8.05223C8.4125 9.82927 8.73395 9.75182 8.73395 8.81364Z" fill="#222222"/>
<path d="M8.22438 11.6874H5.62898V14.0064H8.08259C8.52017 13.9949 9.06229 13.8473 9.06229 12.8835C9.06229 11.7208 8.31015 11.6874 8.22438 11.6874Z" fill="#222222"/>
</svg>
