<svg width="22" height="22" viewBox="0 0 22 22" fill="none" xmlns="http://www.w3.org/2000/svg">
<path fill-rule="evenodd" clip-rule="evenodd" d="M0 3C0 1.34315 1.34315 0 3 0H19C20.6569 0 22 1.34315 22 3V19C22 20.6569 20.6569 22 19 22H3C1.34315 22 0 20.6569 0 19V3ZM12.1862 8.16045H9.95759V16H12.3575V12.2022C12.3575 10.9296 12.8288 10.1196 13.9622 10.1196C14.7791 10.1196 15.1008 10.8708 15.1008 12.2022V16H17.5V11.6697C17.5 9.33192 16.9382 8.05781 14.5674 8.05781C13.3308 8.05781 12.5079 8.6335 12.1862 9.27316V8.16045ZM8.24293 15.8981H5.84301V8.05781H8.24293V15.8981ZM8.47876 6.09816C8.55427 5.9081 8.59084 5.70496 8.58631 5.50066C8.57743 5.09965 8.41097 4.71804 8.12257 4.43755C7.83418 4.15706 7.44678 4 7.04334 4C6.63991 4 6.25251 4.15706 5.96411 4.43755C5.67572 4.71804 5.50926 5.09965 5.50037 5.50066C5.49585 5.70496 5.53241 5.9081 5.60792 6.09816C5.68343 6.28821 5.79636 6.46136 5.94009 6.60744C6.08381 6.75352 6.25544 6.86958 6.44489 6.94882C6.63435 7.02806 6.83781 7.06888 7.04334 7.06888C7.24888 7.06888 7.45234 7.02806 7.64179 6.94882C7.83125 6.86958 8.00287 6.75352 8.1466 6.60744C8.29033 6.46136 8.40326 6.28821 8.47876 6.09816Z" fill="#222222"/>
</svg>
