<svg width="22" height="18" viewBox="0 0 22 18" fill="none" xmlns="http://www.w3.org/2000/svg">
<path d="M11 8.77771L1.59779 3.80668C0.614894 3.28701 -0.103609 2.17521 0.534264 1.26458C1.06986 0.499951 1.9575 0 2.96191 0H19.0363C20.0416 0 20.93 0.500554 21.4659 1.26603C22.1036 2.17696 21.385 3.28879 20.4019 3.8084L11 8.77771Z" fill="#222222"/>
<path d="M11.4345 10.5921L22 5.00671V15C22 16.6569 20.6569 18 19 18H3C1.34315 18 0 16.6569 0 15V5.00671L10.5655 10.5921C10.699 10.6627 10.8483 10.6996 11 10.6996C11.1517 10.6996 11.301 10.6627 11.4345 10.5921Z" fill="#222222"/>
</svg>
